<mxfile host="app.diagrams.net" agent="Mozilla/5.0 (Windows NT 10.0; Win64; x64) AppleWebKit/537.36 (KHTML, like Gecko) Chrome/129.0.0.0 Safari/537.36" version="24.7.17">
  <diagram name="第 1 页" id="Iz_i2JupdgYfHiRY4rDn">
    <mxGraphModel dx="1221" dy="1894" grid="1" gridSize="10" guides="1" tooltips="1" connect="1" arrows="1" fold="1" page="1" pageScale="1" pageWidth="827" pageHeight="1169" math="0" shadow="0">
      <root>
        <mxCell id="0" />
        <mxCell id="1" parent="0" />
        <mxCell id="Fvlb6eTeZX9XCZyYkuBX-1" style="edgeStyle=orthogonalEdgeStyle;rounded=0;orthogonalLoop=1;jettySize=auto;html=1;exitX=1;exitY=0.5;exitDx=0;exitDy=0;" edge="1" parent="1" source="Fvlb6eTeZX9XCZyYkuBX-2" target="Fvlb6eTeZX9XCZyYkuBX-6">
          <mxGeometry relative="1" as="geometry" />
        </mxCell>
        <mxCell id="Fvlb6eTeZX9XCZyYkuBX-2" value="Receive and check order" style="rounded=1;whiteSpace=wrap;html=1;fontSize=12;glass=0;strokeWidth=1;shadow=0;" vertex="1" parent="1">
          <mxGeometry x="160" y="80" width="120" height="40" as="geometry" />
        </mxCell>
        <mxCell id="Fvlb6eTeZX9XCZyYkuBX-3" style="edgeStyle=orthogonalEdgeStyle;rounded=0;orthogonalLoop=1;jettySize=auto;html=1;entryX=0;entryY=0.5;entryDx=0;entryDy=0;" edge="1" parent="1" source="Fvlb6eTeZX9XCZyYkuBX-4" target="Fvlb6eTeZX9XCZyYkuBX-2">
          <mxGeometry relative="1" as="geometry" />
        </mxCell>
        <mxCell id="Fvlb6eTeZX9XCZyYkuBX-4" value="" style="ellipse;whiteSpace=wrap;html=1;aspect=fixed;" vertex="1" parent="1">
          <mxGeometry x="30" y="80" width="40" height="40" as="geometry" />
        </mxCell>
        <mxCell id="Fvlb6eTeZX9XCZyYkuBX-5" style="edgeStyle=orthogonalEdgeStyle;rounded=0;orthogonalLoop=1;jettySize=auto;html=1;exitX=1;exitY=0.5;exitDx=0;exitDy=0;" edge="1" parent="1" source="Fvlb6eTeZX9XCZyYkuBX-6" target="Fvlb6eTeZX9XCZyYkuBX-11">
          <mxGeometry relative="1" as="geometry" />
        </mxCell>
        <mxCell id="Fvlb6eTeZX9XCZyYkuBX-6" value="Check if customers are on database" style="rounded=1;whiteSpace=wrap;html=1;fontSize=12;glass=0;strokeWidth=1;shadow=0;" vertex="1" parent="1">
          <mxGeometry x="340" y="80" width="120" height="40" as="geometry" />
        </mxCell>
        <mxCell id="Fvlb6eTeZX9XCZyYkuBX-7" style="edgeStyle=orthogonalEdgeStyle;rounded=0;orthogonalLoop=1;jettySize=auto;html=1;exitX=0.5;exitY=0;exitDx=0;exitDy=0;entryX=0;entryY=0.5;entryDx=0;entryDy=0;" edge="1" parent="1" source="Fvlb6eTeZX9XCZyYkuBX-11" target="Fvlb6eTeZX9XCZyYkuBX-13">
          <mxGeometry relative="1" as="geometry" />
        </mxCell>
        <mxCell id="Fvlb6eTeZX9XCZyYkuBX-8" value="No" style="edgeLabel;html=1;align=center;verticalAlign=middle;resizable=0;points=[];" vertex="1" connectable="0" parent="Fvlb6eTeZX9XCZyYkuBX-7">
          <mxGeometry x="0.0424" y="-3" relative="1" as="geometry">
            <mxPoint x="-23" y="17" as="offset" />
          </mxGeometry>
        </mxCell>
        <mxCell id="Fvlb6eTeZX9XCZyYkuBX-9" style="edgeStyle=orthogonalEdgeStyle;rounded=0;orthogonalLoop=1;jettySize=auto;html=1;exitX=1;exitY=0.5;exitDx=0;exitDy=0;entryX=0;entryY=0.5;entryDx=0;entryDy=0;" edge="1" parent="1" source="Fvlb6eTeZX9XCZyYkuBX-11" target="Fvlb6eTeZX9XCZyYkuBX-15">
          <mxGeometry relative="1" as="geometry" />
        </mxCell>
        <mxCell id="Fvlb6eTeZX9XCZyYkuBX-10" value="Yes" style="edgeLabel;html=1;align=center;verticalAlign=middle;resizable=0;points=[];" vertex="1" connectable="0" parent="Fvlb6eTeZX9XCZyYkuBX-9">
          <mxGeometry x="-0.3333" relative="1" as="geometry">
            <mxPoint x="-1" y="-20" as="offset" />
          </mxGeometry>
        </mxCell>
        <mxCell id="Fvlb6eTeZX9XCZyYkuBX-11" value="" style="rhombus;whiteSpace=wrap;html=1;shadow=0;fontFamily=Helvetica;fontSize=12;align=center;strokeWidth=1;spacing=6;spacingTop=-4;" vertex="1" parent="1">
          <mxGeometry x="510" y="60" width="100" height="80" as="geometry" />
        </mxCell>
        <mxCell id="Fvlb6eTeZX9XCZyYkuBX-12" style="edgeStyle=orthogonalEdgeStyle;rounded=0;orthogonalLoop=1;jettySize=auto;html=1;entryX=0.5;entryY=0;entryDx=0;entryDy=0;" edge="1" parent="1" source="Fvlb6eTeZX9XCZyYkuBX-13" target="Fvlb6eTeZX9XCZyYkuBX-15">
          <mxGeometry relative="1" as="geometry">
            <Array as="points">
              <mxPoint x="750" y="-20" />
            </Array>
          </mxGeometry>
        </mxCell>
        <mxCell id="Fvlb6eTeZX9XCZyYkuBX-13" value="Enter new customer onto database" style="rounded=1;whiteSpace=wrap;html=1;fontSize=12;glass=0;strokeWidth=1;shadow=0;" vertex="1" parent="1">
          <mxGeometry x="590" y="-40" width="120" height="40" as="geometry" />
        </mxCell>
        <mxCell id="Fvlb6eTeZX9XCZyYkuBX-14" style="edgeStyle=orthogonalEdgeStyle;rounded=0;orthogonalLoop=1;jettySize=auto;html=1;exitX=1;exitY=0.5;exitDx=0;exitDy=0;" edge="1" parent="1" source="Fvlb6eTeZX9XCZyYkuBX-15" target="Fvlb6eTeZX9XCZyYkuBX-17">
          <mxGeometry relative="1" as="geometry" />
        </mxCell>
        <mxCell id="Fvlb6eTeZX9XCZyYkuBX-15" value="" style="rhombus;whiteSpace=wrap;html=1;shadow=0;fontFamily=Helvetica;fontSize=12;align=center;strokeWidth=1;spacing=6;spacingTop=-4;" vertex="1" parent="1">
          <mxGeometry x="700" y="60" width="100" height="80" as="geometry" />
        </mxCell>
        <mxCell id="Fvlb6eTeZX9XCZyYkuBX-16" style="edgeStyle=orthogonalEdgeStyle;rounded=0;orthogonalLoop=1;jettySize=auto;html=1;entryX=0;entryY=0.5;entryDx=0;entryDy=0;" edge="1" parent="1" source="Fvlb6eTeZX9XCZyYkuBX-17" target="Fvlb6eTeZX9XCZyYkuBX-22">
          <mxGeometry relative="1" as="geometry">
            <Array as="points">
              <mxPoint x="950" y="170" />
              <mxPoint x="120" y="170" />
              <mxPoint x="120" y="260" />
            </Array>
          </mxGeometry>
        </mxCell>
        <mxCell id="Fvlb6eTeZX9XCZyYkuBX-17" value="Check customer credit worthiness" style="rounded=1;whiteSpace=wrap;html=1;fontSize=12;glass=0;strokeWidth=1;shadow=0;" vertex="1" parent="1">
          <mxGeometry x="890" y="80" width="120" height="40" as="geometry" />
        </mxCell>
        <mxCell id="Fvlb6eTeZX9XCZyYkuBX-18" style="edgeStyle=orthogonalEdgeStyle;rounded=0;orthogonalLoop=1;jettySize=auto;html=1;entryX=0;entryY=0.5;entryDx=0;entryDy=0;" edge="1" parent="1" source="Fvlb6eTeZX9XCZyYkuBX-22" target="Fvlb6eTeZX9XCZyYkuBX-24">
          <mxGeometry relative="1" as="geometry" />
        </mxCell>
        <mxCell id="Fvlb6eTeZX9XCZyYkuBX-19" value="Credit is positive" style="edgeLabel;html=1;align=center;verticalAlign=middle;resizable=0;points=[];" vertex="1" connectable="0" parent="Fvlb6eTeZX9XCZyYkuBX-18">
          <mxGeometry x="0.0133" y="3" relative="1" as="geometry">
            <mxPoint y="-17" as="offset" />
          </mxGeometry>
        </mxCell>
        <mxCell id="Fvlb6eTeZX9XCZyYkuBX-20" style="edgeStyle=orthogonalEdgeStyle;rounded=0;orthogonalLoop=1;jettySize=auto;html=1;entryX=0;entryY=0.5;entryDx=0;entryDy=0;" edge="1" parent="1" source="Fvlb6eTeZX9XCZyYkuBX-22" target="Fvlb6eTeZX9XCZyYkuBX-26">
          <mxGeometry relative="1" as="geometry">
            <Array as="points">
              <mxPoint x="190" y="400" />
            </Array>
          </mxGeometry>
        </mxCell>
        <mxCell id="Fvlb6eTeZX9XCZyYkuBX-21" value="Credit is questionable" style="edgeLabel;html=1;align=center;verticalAlign=middle;resizable=0;points=[];" vertex="1" connectable="0" parent="Fvlb6eTeZX9XCZyYkuBX-20">
          <mxGeometry x="-0.36" y="2" relative="1" as="geometry">
            <mxPoint y="40" as="offset" />
          </mxGeometry>
        </mxCell>
        <mxCell id="Fvlb6eTeZX9XCZyYkuBX-22" value="" style="rhombus;whiteSpace=wrap;html=1;shadow=0;fontFamily=Helvetica;fontSize=12;align=center;strokeWidth=1;spacing=6;spacingTop=-4;" vertex="1" parent="1">
          <mxGeometry x="140" y="220" width="100" height="80" as="geometry" />
        </mxCell>
        <mxCell id="Fvlb6eTeZX9XCZyYkuBX-23" style="edgeStyle=orthogonalEdgeStyle;rounded=0;orthogonalLoop=1;jettySize=auto;html=1;entryX=0.5;entryY=0;entryDx=0;entryDy=0;" edge="1" parent="1" source="Fvlb6eTeZX9XCZyYkuBX-24" target="Fvlb6eTeZX9XCZyYkuBX-41">
          <mxGeometry relative="1" as="geometry" />
        </mxCell>
        <mxCell id="Fvlb6eTeZX9XCZyYkuBX-24" value="Process order + send confirmation" style="rounded=1;whiteSpace=wrap;html=1;fontSize=12;glass=0;strokeWidth=1;shadow=0;" vertex="1" parent="1">
          <mxGeometry x="340" y="240" width="120" height="40" as="geometry" />
        </mxCell>
        <mxCell id="Fvlb6eTeZX9XCZyYkuBX-25" style="edgeStyle=orthogonalEdgeStyle;rounded=0;orthogonalLoop=1;jettySize=auto;html=1;" edge="1" parent="1" source="Fvlb6eTeZX9XCZyYkuBX-26" target="Fvlb6eTeZX9XCZyYkuBX-31">
          <mxGeometry relative="1" as="geometry" />
        </mxCell>
        <mxCell id="Fvlb6eTeZX9XCZyYkuBX-26" value="Check with finance department" style="rounded=1;whiteSpace=wrap;html=1;fontSize=12;glass=0;strokeWidth=1;shadow=0;" vertex="1" parent="1">
          <mxGeometry x="340" y="380" width="120" height="40" as="geometry" />
        </mxCell>
        <mxCell id="Fvlb6eTeZX9XCZyYkuBX-27" style="edgeStyle=orthogonalEdgeStyle;rounded=0;orthogonalLoop=1;jettySize=auto;html=1;" edge="1" parent="1" source="Fvlb6eTeZX9XCZyYkuBX-31" target="Fvlb6eTeZX9XCZyYkuBX-37">
          <mxGeometry relative="1" as="geometry" />
        </mxCell>
        <mxCell id="Fvlb6eTeZX9XCZyYkuBX-28" value="Proceed" style="edgeLabel;html=1;align=center;verticalAlign=middle;resizable=0;points=[];" vertex="1" connectable="0" parent="Fvlb6eTeZX9XCZyYkuBX-27">
          <mxGeometry x="0.0333" y="-1" relative="1" as="geometry">
            <mxPoint y="-21" as="offset" />
          </mxGeometry>
        </mxCell>
        <mxCell id="Fvlb6eTeZX9XCZyYkuBX-29" style="edgeStyle=orthogonalEdgeStyle;rounded=0;orthogonalLoop=1;jettySize=auto;html=1;entryX=0;entryY=0.5;entryDx=0;entryDy=0;" edge="1" parent="1" source="Fvlb6eTeZX9XCZyYkuBX-31" target="Fvlb6eTeZX9XCZyYkuBX-33">
          <mxGeometry relative="1" as="geometry">
            <Array as="points">
              <mxPoint x="650" y="520" />
            </Array>
          </mxGeometry>
        </mxCell>
        <mxCell id="Fvlb6eTeZX9XCZyYkuBX-30" value="Not proceed" style="edgeLabel;html=1;align=center;verticalAlign=middle;resizable=0;points=[];" vertex="1" connectable="0" parent="Fvlb6eTeZX9XCZyYkuBX-29">
          <mxGeometry x="-0.363" y="2" relative="1" as="geometry">
            <mxPoint x="-42" y="-7" as="offset" />
          </mxGeometry>
        </mxCell>
        <mxCell id="Fvlb6eTeZX9XCZyYkuBX-31" value="" style="rhombus;whiteSpace=wrap;html=1;shadow=0;fontFamily=Helvetica;fontSize=12;align=center;strokeWidth=1;spacing=6;spacingTop=-4;" vertex="1" parent="1">
          <mxGeometry x="600" y="360" width="100" height="80" as="geometry" />
        </mxCell>
        <mxCell id="Fvlb6eTeZX9XCZyYkuBX-32" style="edgeStyle=orthogonalEdgeStyle;rounded=0;orthogonalLoop=1;jettySize=auto;html=1;" edge="1" parent="1" source="Fvlb6eTeZX9XCZyYkuBX-33" target="Fvlb6eTeZX9XCZyYkuBX-41">
          <mxGeometry relative="1" as="geometry" />
        </mxCell>
        <mxCell id="Fvlb6eTeZX9XCZyYkuBX-33" value="Message customer order cannot be fullfilled" style="rounded=1;whiteSpace=wrap;html=1;fontSize=12;glass=0;strokeWidth=1;shadow=0;" vertex="1" parent="1">
          <mxGeometry x="750" y="500" width="120" height="40" as="geometry" />
        </mxCell>
        <mxCell id="Fvlb6eTeZX9XCZyYkuBX-34" style="edgeStyle=orthogonalEdgeStyle;rounded=0;orthogonalLoop=1;jettySize=auto;html=1;" edge="1" parent="1" source="Fvlb6eTeZX9XCZyYkuBX-35" target="Fvlb6eTeZX9XCZyYkuBX-39">
          <mxGeometry relative="1" as="geometry" />
        </mxCell>
        <mxCell id="Fvlb6eTeZX9XCZyYkuBX-35" value="" style="rhombus;whiteSpace=wrap;html=1;shadow=0;fontFamily=Helvetica;fontSize=12;align=center;strokeWidth=1;spacing=6;spacingTop=-4;" vertex="1" parent="1">
          <mxGeometry x="970" y="360" width="100" height="80" as="geometry" />
        </mxCell>
        <mxCell id="Fvlb6eTeZX9XCZyYkuBX-36" style="edgeStyle=orthogonalEdgeStyle;rounded=0;orthogonalLoop=1;jettySize=auto;html=1;entryX=0;entryY=0.5;entryDx=0;entryDy=0;" edge="1" parent="1" source="Fvlb6eTeZX9XCZyYkuBX-37" target="Fvlb6eTeZX9XCZyYkuBX-35">
          <mxGeometry relative="1" as="geometry" />
        </mxCell>
        <mxCell id="Fvlb6eTeZX9XCZyYkuBX-37" value="Process order + confirm" style="rounded=1;whiteSpace=wrap;html=1;fontSize=12;glass=0;strokeWidth=1;shadow=0;" vertex="1" parent="1">
          <mxGeometry x="780" y="380" width="120" height="40" as="geometry" />
        </mxCell>
        <mxCell id="Fvlb6eTeZX9XCZyYkuBX-38" style="edgeStyle=orthogonalEdgeStyle;rounded=0;orthogonalLoop=1;jettySize=auto;html=1;entryX=0;entryY=0.5;entryDx=0;entryDy=0;" edge="1" parent="1" source="Fvlb6eTeZX9XCZyYkuBX-39" target="Fvlb6eTeZX9XCZyYkuBX-41">
          <mxGeometry relative="1" as="geometry" />
        </mxCell>
        <mxCell id="Fvlb6eTeZX9XCZyYkuBX-39" value="Reduce requirements list" style="rounded=1;whiteSpace=wrap;html=1;fontSize=12;glass=0;strokeWidth=1;shadow=0;" vertex="1" parent="1">
          <mxGeometry x="1140" y="380" width="120" height="40" as="geometry" />
        </mxCell>
        <mxCell id="Fvlb6eTeZX9XCZyYkuBX-40" style="edgeStyle=orthogonalEdgeStyle;rounded=0;orthogonalLoop=1;jettySize=auto;html=1;entryX=0;entryY=0.5;entryDx=0;entryDy=0;" edge="1" parent="1" source="Fvlb6eTeZX9XCZyYkuBX-41" target="Fvlb6eTeZX9XCZyYkuBX-42">
          <mxGeometry relative="1" as="geometry" />
        </mxCell>
        <mxCell id="Fvlb6eTeZX9XCZyYkuBX-41" value="" style="rhombus;whiteSpace=wrap;html=1;shadow=0;fontFamily=Helvetica;fontSize=12;align=center;strokeWidth=1;spacing=6;spacingTop=-4;" vertex="1" parent="1">
          <mxGeometry x="1330" y="360" width="100" height="80" as="geometry" />
        </mxCell>
        <mxCell id="Fvlb6eTeZX9XCZyYkuBX-42" value="" style="ellipse;whiteSpace=wrap;html=1;aspect=fixed;" vertex="1" parent="1">
          <mxGeometry x="1500" y="380" width="40" height="40" as="geometry" />
        </mxCell>
      </root>
    </mxGraphModel>
  </diagram>
</mxfile>
